/vscmnt/brussel_pixiu_data/_data_brussel/112/vsc11236/PredSimResults/SUBJ06mtu3D/weighted-expIG/worker_03.mot
version=1
nRows=8
nColumns=50
inDegrees=yes
endheader
                time	         pelvis_tilt	         pelvis_list	     pelvis_rotation	           pelvis_tx	           pelvis_ty	           pelvis_tz	       hip_flexion_r	     hip_adduction_r	      hip_rotation_r	        knee_angle_r	       ankle_angle_r	         mtp_angle_r	       hip_flexion_l	     hip_adduction_l	      hip_rotation_l	        knee_angle_l	       ankle_angle_l	         mtp_angle_l	    lumbar_extension	      lumbar_bending	     lumbar_rotation	 ercspn_r/activation	 intobl_r/activation	 extobl_r/activation	    abd_r/activation	    add_r/activation	hamstrings_r/activation	bifemsh_r/activation	glut_max_r/activation	iliopsoas_r/activation	rect_fem_r/activation	  vasti_r/activation	gastroc_r/activation	 soleus_r/activation	tib_ant_r/activation	 ercspn_l/activation	 intobl_l/activation	 extobl_l/activation	    abd_l/activation	    add_l/activation	hamstrings_l/activation	bifemsh_l/activation	glut_max_l/activation	iliopsoas_l/activation	rect_fem_l/activation	  vasti_l/activation	gastroc_l/activation	 soleus_l/activation	tib_ant_l/activation	
          2.99999998	        -10.90295926	        -13.16113645	         12.21746713	          3.35999998	          0.96851073	          0.00473977	         24.10395211	         15.71011948	         15.54913739	        -16.60934032	         -6.42600753	         16.32946978	         22.51767604	         -9.94267373	          0.31734836	        -24.53954302	         15.00702068	          1.72278681	          0.40088259	          5.23371651	         10.97803866	          0.09771183	          0.23152474	          0.05406600	          0.04195912	          0.03859473	          0.01265104	          0.01333876	          0.06264077	          0.98765541	          0.89759140	          0.14577781	          0.05260732	          0.06802406	          0.36101140	          0.02281882	          0.01437010	          0.04764552	          0.21664833	          0.11107580	          0.41739670	          0.01002722	          0.06950850	          0.01778056	          0.04165144	          0.01000171	          0.20272385	          0.02555123	          0.47973559	
          3.01999998	        -11.20812075	        -13.72641578	         11.23062593	          3.37453752	          0.96489948	          0.00683166	         24.40310807	         16.15829784	         15.67736414	        -13.90329962	         -4.61077781	         12.71024489	         20.88156610	        -10.36301974	         -0.77635613	        -20.54788509	         14.51248834	          1.79880459	         -0.47580417	          6.14429634	         10.97193318	          0.18698857	          0.17367263	          0.05043378	          0.03146983	          0.02894971	          0.01000053	          0.01001035	          0.11947297	          0.88995506	          0.67319531	          0.10933402	          0.03945557	          0.05101814	          0.28193041	          0.01711767	          0.01077807	          0.03573496	          0.18760338	          0.08330728	          0.42058486	          0.01000627	          0.05213200	          0.01333666	          0.03123986	          0.09125262	          0.26847943	          0.12150382	          0.35980207	
          3.03999998	        -11.57483222	        -13.73385278	         10.24027263	          3.38897121	          0.95873949	          0.00885170	         25.13840711	         15.85552424	         15.14941960	        -10.95136304	         -3.38719616	          9.88214977	         19.35460490	        -10.82912955	         -1.81928422	        -19.61435073	         16.24787477	          3.30841065	         -1.42166925	          6.48179301	         10.79256045	          0.25517005	          0.13025490	          0.03783454	          0.02360257	          0.03328378	          0.01000155	          0.01000600	          0.09106522	          0.79466674	          0.50489792	          0.08200960	          0.02959184	          0.03826395	          0.22654039	          0.01283878	          0.01000218	          0.02680179	          0.28353789	          0.06248070	          0.31598799	          0.01006392	          0.10534699	          0.01000362	          0.02343136	          0.08388850	          0.31429417	          0.20754653	          0.26985180	
          3.05999998	        -11.97197097	        -13.34546757	          9.28744769	          3.40339883	          0.95213953	          0.01028930	         26.33280379	         15.03045979	         14.23861674	         -8.33507186	         -2.92898693	          7.64433868	         17.95125020	        -10.84247657	         -2.99532393	        -18.96652891	         17.75292855	          5.11610407	         -2.37306986	          6.49981472	         10.45194845	          0.31570401	          0.09769149	          0.02837685	          0.01770222	          0.02496765	          0.01000082	          0.01000990	          0.06830153	          0.64468232	          0.37867599	          0.08659444	          0.02219421	          0.02870357	          0.20465103	          0.03417952	          0.01955659	          0.02010190	          0.29370154	          0.04686123	          0.23699270	          0.01002050	          0.12721559	          0.01000261	          0.01757733	          0.13343263	          0.36108912	          0.25450404	          0.20238915	
          3.07999998	        -12.36332070	        -12.77928232	          8.40982220	          3.41853502	          0.94669118	          0.01126979	         27.75700433	         13.96829597	         13.26946425	         -6.08995544	         -2.69312863	          5.88059051	         16.86984052	        -10.62947225	         -4.13830492	        -18.95739270	         18.91288522	          6.97799884	         -3.21679171	          6.41983662	          9.94691613	          0.31743907	          0.07326895	          0.02128353	          0.01327715	          0.01873044	          0.01000096	          0.01001116	          0.05611574	          0.49851582	          0.28401684	          0.10146583	          0.01664620	          0.02345587	          0.20646786	          0.12547043	          0.01924283	          0.01507713	          0.30819373	          0.03514807	          0.17774559	          0.01004285	          0.11669624	          0.01000443	          0.01318914	          0.17596323	          0.39125065	          0.29113268	          0.15179225	
          3.09999998	        -12.72480837	        -12.10804638	          7.59442892	          3.43543932	          0.94283844	          0.01196256	         29.06271103	         12.80362173	         12.38879567	         -4.04768656	         -2.19139205	          4.49998910	         15.67928757	        -10.27855729	         -5.27542495	        -18.89685503	         19.48274396	          8.86964717	         -3.81370637	          6.27881872	          9.27398464	          0.30682041	          0.05495211	          0.01596361	          0.01000153	          0.01405803	          0.01000111	          0.01001354	          0.04699136	          0.37396847	          0.21302145	          0.08681429	          0.01248577	          0.01759894	          0.20495060	          0.15615065	          0.01445813	          0.01130906	          0.29385514	          0.03477322	          0.13331012	          0.01003682	          0.08753599	          0.01000520	          0.01002261	          0.18996609	          0.41191460	          0.31211609	          0.11384453	
          3.11999998	        -13.03932451	        -11.36990292	          6.83108170	          3.45459524	          0.94033224	          0.01248766	         30.08955077	         11.61727704	         11.64179527	         -2.18395136	         -1.37533232	          3.44310814	         14.08981528	         -9.81027321	         -6.43976793	        -18.33198495	         19.46909644	         10.77785026	         -4.10819614	          6.09885703	          8.44791916	          0.28721179	          0.04121466	          0.01197417	          0.01000224	          0.06568284	          0.01000174	          0.01002097	          0.03525286	          0.28048688	          0.15976924	          0.06511384	          0.01000307	          0.01320134	          0.20452009	          0.13811420	          0.01085904	          0.01000332	          0.23678357	          0.03538104	          0.09998319	          0.01001423	          0.06565809	          0.01000261	          0.01003230	          0.14248497	          0.43099746	          0.32192282	          0.08538362	
          3.13999998	        -13.29094596	        -10.58967012	          6.11503169	          3.47589095	          0.93866252	          0.01294502	         30.80197811	         10.47043864	         10.95268641	         -0.53094675	         -0.44854363	          2.63786231	         12.16941358	         -9.24530932	         -7.61381463	        -17.40806018	         18.96740147	         12.75504283	         -4.13486459	          5.90548772	          7.50750411	          0.26590536	          0.03091248	          0.01000406	          0.01000364	          0.08828512	          0.01000271	          0.01002037	          0.02970182	          0.21036894	          0.11982853	          0.04883665	          0.01000426	          0.01000475	          0.20874031	          0.11837967	          0.01000411	          0.01000581	          0.17758933	          0.02653779	          0.07498782	          0.01001250	          0.04924474	          0.01000257	          0.01006985	          0.10686427	          0.44772681	          0.32246786	          0.06403786	
